<?xml version="1.0" encoding="UTF-8"?>
<svg version="1.1" xmlns="http://www.w3.org/2000/svg" width="2160" height="1080">
<path d="M0 0 C712.8 0 1425.6 0 2160 0 C2160 356.4 2160 712.8 2160 1080 C1447.2 1080 734.4 1080 0 1080 C0 723.6 0 367.2 0 0 Z " fill="#162141" transform="translate(0,0)"/>
<path d="M0 0 C65.67 0 131.34 0 199 0 C195.62464011 11.25119964 195.62464011 11.25119964 193.80200195 16.23608398 C193.39280014 17.35943649 192.98359833 18.482789 192.56199646 19.6401825 C191.90675743 21.42510857 191.90675743 21.42510857 191.23828125 23.24609375 C190.77041255 24.52671828 190.30277198 25.80742618 189.83534241 27.08821106 C188.58922954 30.50009445 187.33936431 33.91059121 186.08855438 37.320755 C185.04567213 40.16529249 184.00488625 43.01059534 182.96398926 45.85585976 C175.28563119 66.84170224 167.53758714 87.80114301 159.71385193 108.73324585 C156.58995135 117.09205018 153.4830776 125.45715853 150.37774658 133.82287598 C149.52072829 136.13165859 148.66348268 138.44035667 147.80615234 140.74902344 C146.53727583 144.16595658 145.26857582 147.58295521 144 151 C143.34 151 142.68 151 142 151 C140.66015625 149.63671875 140.66015625 149.63671875 139.0625 147.6875 C135.59109352 143.59283474 131.86519369 139.8326579 128.04467773 136.06469727 C125.46000551 133.50035939 122.97970409 130.90144213 120.625 128.125 C117.4387061 124.38456803 113.99120315 120.95195962 110.5 117.5 C106.4453483 113.49087421 102.56021848 109.44135496 98.87109375 105.08984375 C96.3561655 102.28089466 93.68164678 99.64891383 91 97 C87.73617703 93.77601619 84.53169881 90.56482179 81.5625 87.0625 C77.87657498 82.72451945 73.81353135 78.78742662 69.76904297 74.78857422 C66.21554347 71.25975894 62.84800533 67.64320628 59.60546875 63.82421875 C57.1885487 61.077986 54.56261815 58.55401214 51.95703125 55.98828125 C50.11269014 54.11448958 48.39367934 52.18686529 46.6875 50.1875 C43.77749587 46.79804439 40.67840824 43.63547854 37.5 40.5 C33.73783378 36.78857957 30.17190164 32.9814158 26.7421875 28.9609375 C24.02955756 25.90770829 21.09399547 23.0859685 18.1875 20.21875 C15.60695253 17.60133757 13.22748199 14.85072599 10.83984375 12.05859375 C7.94651532 8.82126024 4.83304848 5.81246621 1.72265625 2.78515625 C0 1 0 1 0 0 Z " fill="#C1C1C1" transform="translate(930,387)"/>
<path d="M0 0 C46.2 0 92.4 0 140 0 C136.09614529 4.55449717 132.23973266 8.90978971 128.0078125 13.125 C127.45817841 13.67559082 126.90854431 14.22618164 126.34225464 14.79345703 C125.18886965 15.94751688 124.03424355 17.10033761 122.87841797 18.25195312 C121.13263921 19.99238419 119.39225463 21.73808003 117.65234375 23.484375 C108.36628439 32.7754142 108.36628439 32.7754142 104.0859375 36.40625 C97.50901713 42.01450344 91.57486116 48.3611127 85.5 54.5 C82.95093376 57.07593219 80.39838646 59.64834314 77.84375 62.21875 C77.27579712 62.79500122 76.70784424 63.37125244 76.12268066 63.96496582 C73.21922728 66.88572553 70.25861548 69.67631593 67.13671875 72.36328125 C62.52699532 76.35041995 58.25399515 80.6383023 53.96875 84.96875 C53.13339722 85.8078894 52.29804443 86.64702881 51.43737793 87.51159668 C48.78912914 90.171969 46.14415594 92.83556013 43.5 95.5 C40.01337399 99.01337273 36.52335074 102.52331971 33.03125 106.03125 C32.24455933 106.82623901 31.45786865 107.62122803 30.64733887 108.44030762 C26.46956784 112.63637187 22.20430361 116.64700841 17.71591187 120.50894165 C15.71473086 122.2478874 13.82841205 124.07197798 11.97265625 125.96484375 C11.32619141 126.61904297 10.67972656 127.27324219 10.01367188 127.94726562 C9.36978516 128.60404297 8.72589844 129.26082031 8.0625 129.9375 C6.74316207 131.28218544 5.42167156 132.62476354 4.09765625 133.96484375 C3.52539307 134.5487085 2.95312988 135.13257324 2.36352539 135.73413086 C1 137 1 137 0 137 C0 91.79 0 46.58 0 0 Z " fill="#A5A5A5" transform="translate(1139,234)"/>
<path d="M0 0 C0 45.54 0 91.08 0 138 C-43.23 138 -86.46 138 -131 138 C-129.02 135.69 -127.04 133.38 -125 131 C-124.32453125 130.19691406 -123.6490625 129.39382813 -122.953125 128.56640625 C-122.39109375 127.90511719 -121.8290625 127.24382812 -121.25 126.5625 C-120.39148438 125.54349609 -120.39148438 125.54349609 -119.515625 124.50390625 C-118 123 -118 123 -116 123 C-115.60361328 122.11054688 -115.60361328 122.11054688 -115.19921875 121.203125 C-113.95629575 118.91970946 -112.69598354 117.52573277 -110.8125 115.75 C-108.30145673 113.37421199 -106.01501619 110.88285268 -103.76171875 108.265625 C-99.4102685 103.25321692 -94.69681306 98.64514997 -89.9609375 94 C-85.99034791 90.0754018 -82.21453138 86.05954041 -78.59179688 81.81054688 C-76.964123 79.95919266 -75.26026049 78.22503456 -73.5 76.5 C-71.12775898 74.16974555 -68.90886483 71.77895594 -66.75 69.25 C-63.81720378 65.8416152 -60.69927099 62.65600836 -57.5 59.5 C-54.38419758 56.42610481 -51.34122703 53.33297786 -48.5 50 C-45.2169922 46.14877931 -41.64595488 42.6171114 -38.046875 39.06640625 C-35.41976442 36.46094768 -32.90006916 33.81546575 -30.5 31 C-27.21901393 27.15115095 -23.65044506 23.62140952 -20.0534668 20.07299805 C-16.76898065 16.8156798 -13.70345488 13.43920994 -10.69921875 9.92578125 C-1.94117647 0 -1.94117647 0 0 0 Z " fill="#CBCBCB" transform="translate(1131,240)"/>
<path d="M0 0 C0.33 0 0.66 0 1 0 C1 70.62 1 141.24 1 214 C-2.84887578 212.46044969 -6.30738991 210.85310517 -9.9453125 208.91015625 C-11.09580078 208.29591797 -12.24628906 207.68167969 -13.43164062 207.04882812 C-14.66293282 206.38703941 -15.89404908 205.72492328 -17.125 205.0625 C-18.06073853 204.56036987 -18.06073853 204.56036987 -19.01538086 204.0480957 C-29.1368362 198.61305194 -39.13440224 192.99785664 -49.02246094 187.14746094 C-50.92659905 186.04259067 -52.84939277 184.98628565 -54.7890625 183.9453125 C-55.88992188 183.34460938 -56.99078125 182.74390625 -58.125 182.125 C-59.05570313 181.63257813 -59.98640625 181.14015625 -60.9453125 180.6328125 C-63 179 -63 179 -63.9453125 176.69921875 C-64.01569456 173.22536145 -63.08469468 170.89000016 -61.75 167.6875 C-61.28335937 166.54023437 -60.81671875 165.39296875 -60.3359375 164.2109375 C-59.89507813 163.15132812 -59.45421875 162.09171875 -59 161 C-57.33718186 156.79234715 -55.86642723 152.60189213 -54.625 148.25 C-53.23675334 143.50982099 -51.38559419 139.06624964 -49.44165039 134.53076172 C-47.90891485 130.77692236 -46.54079183 126.98107793 -45.2109375 123.15234375 C-44.68000153 121.63633607 -44.14865908 120.1204707 -43.61694336 118.60473633 C-43.34808319 117.8375528 -43.07922302 117.07036926 -42.80221558 116.27993774 C-40.55097889 109.88180781 -38.24098153 103.50446183 -35.9375 97.125 C-35.52472305 95.9812944 -35.52472305 95.9812944 -35.10360718 94.81448364 C-29.59319886 79.55645003 -23.96007258 64.34527102 -18.29031372 49.14585876 C-15.70202333 42.20596764 -13.13166102 35.25949568 -10.5625 28.3125 C-7.06673909 18.86551445 -3.55111007 9.42632063 0 0 Z " fill="#CBCBCB" transform="translate(1130,407)"/>
<path d="M0 0 C30 0 30 0 37 5.5625 C38.26482997 7.38093935 39.52904144 9.20189172 40.70410156 11.07958984 C43.03127786 14.52826519 45.98716503 17.3962096 48.875 20.375 C50.04942303 21.62652006 51.22128476 22.88044836 52.390625 24.13671875 C52.97908203 24.76626465 53.56753906 25.39581055 54.17382812 26.04443359 C56.0709614 28.07598941 57.96546983 30.10996595 59.859375 32.14453125 C60.4898877 32.8214502 61.12040039 33.49836914 61.77001953 34.19580078 C62.97466838 35.48923659 64.17880005 36.78315434 65.38232422 38.07763672 C65.92904785 38.66432129 66.47577148 39.25100586 67.0390625 39.85546875 C67.54856445 40.40251465 68.05806641 40.94956055 68.58300781 41.51318359 C69.81935988 42.81045859 71.10520326 44.06020313 72.3984375 45.30078125 C74 47 74 47 74 49 C74.66 49 75.32 49 76 49 C77.3046875 50.29296875 77.3046875 50.29296875 78.875 52.1875 C81.2217382 54.97862054 83.62328055 57.6713287 86.1640625 60.28515625 C86.71336426 60.85661377 87.26266602 61.42807129 87.82861328 62.0168457 C88.93475285 63.16386364 90.05025164 64.30193559 91.17529297 65.43041992 C92.71875 67.046875 92.71875 67.046875 95 70 C94.80337239 73.91796864 92.49549553 75.86475155 89.80859375 78.51953125 C88.94556641 79.37740234 88.08253906 80.23527344 87.19335938 81.11914062 C86.28392578 82.00794922 85.37449219 82.89675781 84.4375 83.8125 C83.55513672 84.68970703 82.67277344 85.56691406 81.76367188 86.47070312 C77.14285621 91.036875 72.45682543 95.45387363 67.48071289 99.6315918 C65.87658051 100.95238239 65.87658051 100.95238239 65 103 C43.55 103 22.1 103 0 103 C0 69.01 0 35.02 0 0 Z " fill="#AAAAAA" transform="translate(924,275)"/>
<path d="M0 0 C18.07570341 -0.20054405 18.07570341 -0.20054405 25.87890625 -0.24414062 C31.16936842 -0.27384037 36.45939127 -0.30867719 41.74951172 -0.37719727 C46.02249406 -0.4321861 50.29500428 -0.46155861 54.5683136 -0.47438622 C56.18515947 -0.4835079 57.80198438 -0.50131389 59.41862488 -0.52865028 C71.9617158 -0.7319903 85.35053295 0.24077178 95.6875 8.1875 C97.44921875 10.02734375 97.44921875 10.02734375 99 12 C99.52207031 12.66128906 100.04414062 13.32257812 100.58203125 14.00390625 C104.13663941 19.63448391 104.44998102 25.14003869 104.5 31.625 C104.50644531 32.42454102 104.51289062 33.22408203 104.51953125 34.04785156 C104.36061364 41.45280095 102.3027935 48.35991488 97.765625 54.33203125 C86.67732224 64.80704293 70.99970908 64.290519 56.8359375 64.1953125 C55.19113335 64.19157531 53.54632696 64.18873168 51.90151978 64.18673706 C47.6042042 64.17915617 43.30702707 64.15955632 39.00976562 64.1373291 C33.83672445 64.11312241 28.66363659 64.10406325 23.49055481 64.09242249 C15.66027402 64.07312789 7.83029613 64.03476698 0 64 C0 42.88 0 21.76 0 0 Z " fill="#CFD0D3" transform="translate(1509,712)"/>
<path d="M0 0 C0.68388794 -0.00511093 1.36777588 -0.01022186 2.0723877 -0.01548767 C4.31063833 -0.02927563 6.54857745 -0.02843571 8.78686523 -0.02612305 C10.35432549 -0.0300148 11.92178469 -0.03435045 13.48924255 -0.03910828 C16.76483591 -0.0465464 20.04032142 -0.04629593 23.31591797 -0.04101562 C27.50448474 -0.03521203 31.6926106 -0.05218485 35.88110447 -0.0753603 C39.11454326 -0.0901176 42.34787619 -0.09096684 45.5813427 -0.08785057 C47.12544569 -0.08836238 48.66955483 -0.09357371 50.21362495 -0.10366249 C52.37447677 -0.11605436 54.5344735 -0.10922067 56.6953125 -0.09765625 C57.92218277 -0.09828568 59.14905304 -0.0989151 60.4131012 -0.0995636 C66.0884206 0.5306791 70.1248352 2.93910409 73.78295898 7.2746582 C74.67345746 9.94615364 74.92157928 11.54041412 74.95996094 14.28369141 C74.97921379 15.48557854 74.97921379 15.48557854 74.99885559 16.71174622 C75.00624252 17.57426498 75.01362946 18.43678375 75.02124023 19.32543945 C75.02931198 20.21700241 75.03738373 21.10856537 75.04570007 22.02714539 C75.05952805 23.91423607 75.07025596 25.80135162 75.078125 27.68847656 C75.09533244 30.5659962 75.13922886 33.44236501 75.18334961 36.31958008 C75.19347753 38.15485811 75.20199333 39.99014588 75.20874023 41.82543945 C75.22624832 42.68188553 75.24375641 43.5383316 75.26179504 44.42073059 C75.24217813 49.85684385 74.43985222 52.98562773 70.78295898 57.2746582 C65.95958331 60.49024199 61.5274156 60.40587286 55.82470703 60.45166016 C55.14432373 60.45823135 54.46394043 60.46480255 53.76293945 60.47157288 C51.52351754 60.4911952 49.2841623 60.50294284 47.04467773 60.51293945 C45.89156569 60.51905274 45.89156569 60.51905274 44.71515846 60.52528954 C40.64702249 60.54610191 36.57891978 60.56042511 32.51074219 60.56982422 C28.32448842 60.58088608 24.13876652 60.61529683 19.95270061 60.65499592 C16.71919308 60.68122114 13.48581132 60.68952119 10.2522068 60.6931057 C8.70972916 60.69795544 7.16725652 60.70952317 5.62488365 60.72814369 C-9.94973297 60.90450507 -9.94973297 60.90450507 -16.21704102 56.2746582 C-19.80879688 51.44056062 -19.6844475 46.50810389 -19.68579102 40.7121582 C-19.69340454 39.80264404 -19.70101807 38.89312988 -19.7088623 37.95605469 C-19.71963135 36.03982275 -19.72252945 34.12353227 -19.71801758 32.20727539 C-19.71704394 29.2834264 -19.75872819 26.36219219 -19.80297852 23.4387207 C-19.80818516 21.57153865 -19.81087372 19.70434752 -19.81079102 17.8371582 C-19.82718628 16.96824951 -19.84358154 16.09934082 -19.86047363 15.20410156 C-19.8143788 11.13698122 -19.5777666 8.13717864 -17.11743164 4.80200195 C-12.05743768 0.39282203 -6.52595251 0.02449169 0 0 Z " fill="#B4B6B9" transform="translate(1095.217041015625,715.725341796875)"/>
<path d="M0 0 C6.46138876 4.11179285 12.61347729 8.04638034 18.625 12.6875 C24.90814294 17.46765818 31.27677236 22.09956155 37.75732422 26.60864258 C41.22698711 29.02520135 44.6518694 31.47404048 48.0078125 34.046875 C48.95599854 34.76206299 48.95599854 34.76206299 49.92333984 35.49169922 C51.10951193 36.38996854 52.28513732 37.30240188 53.44775391 38.23095703 C55.19881708 39.6076614 55.19881708 39.6076614 58 41 C62.7623972 40.21777051 66.68872926 36.40459573 70.4375 33.5 C71.87532367 32.40366356 73.31414269 31.30863138 74.75390625 30.21484375 C75.47078613 29.66940918 76.18766602 29.12397461 76.92626953 28.56201172 C80.41977788 25.93056995 83.98359425 23.40178702 87.55273438 20.87451172 C90.92859101 18.48216485 94.28675907 16.06821474 97.62890625 13.62890625 C98.42635254 13.04810303 99.22379883 12.4672998 100.04541016 11.86889648 C101.59790571 10.73708635 103.14848096 9.60263567 104.69677734 8.46508789 C105.41430176 7.94293701 106.13182617 7.42078613 106.87109375 6.8828125 C107.49943115 6.42277832 108.12776855 5.96274414 108.77514648 5.48876953 C111.74887863 3.4988849 114.89334842 1.77522947 118 0 C118 21.45 118 42.9 118 65 C113.05 65 108.1 65 103 65 C102.67 52.79 102.34 40.58 102 28 C99.23625 30.041875 96.4725 32.08375 93.625 34.1875 C86.04642007 39.77917887 78.43433243 45.32220404 70.78955078 50.82299805 C69.73550049 51.58157104 69.73550049 51.58157104 68.66015625 52.35546875 C68.01062988 52.81743652 67.36110352 53.2794043 66.69189453 53.75537109 C64.87129388 55.05704066 64.87129388 55.05704066 62.80859375 56.92578125 C61 58 61 58 58.63671875 57.953125 C55.27564302 56.73815836 52.64128043 54.87732488 49.8125 52.75 C48.57424888 51.8424068 47.335966 50.93485694 46.09765625 50.02734375 C45.43910645 49.53991699 44.78055664 49.05249023 44.10205078 48.55029297 C41.10887954 46.34278572 38.0930571 44.16716537 35.0769043 41.99121094 C33.57319298 40.90638049 32.07066636 39.81990515 30.56958008 38.73144531 C25.08591971 34.75942259 19.54921269 30.88444888 14 27 C14 39.54 14 52.08 14 65 C9.38 65 4.76 65 0 65 C0 43.55 0 22.1 0 0 Z " fill="#BFC1C4" transform="translate(1226,711)"/>
<path d="M0 0 C33 0 66 0 100 0 C100 4.62 100 9.24 100 14 C72.28 14 44.56 14 16 14 C16 17.96 16 21.92 16 26 C33.16 26 50.32 26 68 26 C68 30.62 68 35.24 68 40 C50.84 40 33.68 40 16 40 C16 48.91 16 57.82 16 67 C10.72 67 5.44 67 0 67 C0 44.89 0 22.78 0 0 Z " fill="#A3A4A7" transform="translate(680,709)"/>
<path d="M0 0 C4.19409087 1.39803029 7.4821541 2.63971806 11.296875 4.66015625 C12.32119629 5.19809814 13.34551758 5.73604004 14.40087891 6.2902832 C15.50608887 6.87511475 16.61129883 7.45994629 17.75 8.0625 C20.16812554 9.33038656 22.58699086 10.59666212 25.0078125 11.859375 C25.96263016 12.35755486 25.96263016 12.35755486 26.93673706 12.86579895 C34.78338416 16.94642657 42.70572754 20.87529813 50.625 24.8125 C60.28730629 29.61779667 69.93668004 34.42852171 79.42236328 39.57739258 C81.93812258 40.9398921 84.27622055 42.09207352 87 43 C87 29.14 87 15.28 87 1 C91.95 1 96.9 1 102 1 C102 22.45 102 43.9 102 66 C95.24919617 63.74973206 95.24919617 63.74973206 92.31567383 62.27929688 C91.65599106 61.95097366 90.99630829 61.62265045 90.31663513 61.28437805 C89.62046585 60.93272079 88.92429657 60.58106354 88.20703125 60.21875 C87.46796036 59.84916672 86.72888947 59.47958344 85.96742249 59.09880066 C83.58031735 57.903395 81.19632008 56.70194139 78.8125 55.5 C77.16233987 54.67149594 75.51211175 53.84312727 73.86181641 53.01489258 C65.12697064 48.62391557 56.42264917 44.18460989 47.79882812 39.57861328 C36.98462279 33.82323106 25.96728405 28.45462805 15 23 C15 36.86 15 50.72 15 65 C10.05 65 5.1 65 0 65 C0 43.55 0 22.1 0 0 Z " fill="#999B9F" transform="translate(565,711)"/>
<path d="M0 0 C3.59557336 1.43822934 6.95722417 2.91539601 10.40673828 4.63867188 C11.46619659 5.16682495 12.52565491 5.69497803 13.61721802 6.23913574 C15.32649979 7.0952948 15.32649979 7.0952948 17.0703125 7.96875 C18.27312504 8.56981852 19.47599687 9.1707684 20.67892456 9.77160645 C23.20636167 11.03458824 25.7330715 12.29901045 28.25927734 13.56445312 C31.43685985 15.15604931 34.61619345 16.74410911 37.7960701 18.33111572 C49.96130107 24.40437252 62.12221531 30.47911362 74.09915161 36.91882324 C75.12684158 37.46850769 75.12684158 37.46850769 76.17529297 38.02929688 C76.7508493 38.34024292 77.32640564 38.65118896 77.91940308 38.97155762 C80.88790351 40.43889212 83.95638542 41.69559375 87 43 C87 29.14 87 15.28 87 1 C91.95 1 96.9 1 102 1 C102 22.45 102 43.9 102 66 C98.27014853 64.75671618 95.18317477 63.71665294 91.76489258 62.00390625 C90.5962542 61.42189453 90.5962542 61.42189453 89.40400696 60.828125 C88.16181648 60.20164062 88.16181648 60.20164062 86.89453125 59.5625 C86.01584885 59.12292969 85.13716644 58.68335938 84.2318573 58.23046875 C82.3691974 57.2976308 80.50750802 56.36285277 78.64672852 55.42626953 C75.86892208 54.0283933 73.088094 52.63669658 70.30664062 51.24609375 C60.63451359 46.40019925 51.01661547 41.46433645 41.45495605 36.40396118 C35.61338268 33.31363736 29.7359081 30.30575311 23.8125 27.375 C20.904375 25.93125 17.99625 24.4875 15 23 C15 36.86 15 50.72 15 65 C10.05 65 5.1 65 0 65 C0 43.55 0 22.1 0 0 Z " fill="#C7C8CB" transform="translate(1391,711)"/>
<path d="M0 0 C3.75505338 1.25168446 6.85365194 2.30128456 10.29296875 4.03125 C11.09025391 4.43085937 11.88753906 4.83046875 12.70898438 5.2421875 C13.52689453 5.65726563 14.34480469 6.07234375 15.1875 6.5 C16.33895508 7.07621094 16.33895508 7.07621094 17.51367188 7.6640625 C22.53064308 10.1904233 27.50545876 12.79176624 32.46931458 15.42041016 C43.56007576 21.29057995 54.75934366 26.92330469 66 32.5 C69.54282697 34.25809459 73.08429285 36.01889091 76.625 37.78125 C77.82479492 38.37492371 77.82479492 38.37492371 79.04882812 38.98059082 C79.78810547 39.34857788 80.52738281 39.71656494 81.2890625 40.09570312 C81.93568848 40.41639771 82.58231445 40.73709229 83.24853516 41.06750488 C85 42 85 42 88 44 C88 29.81 88 15.62 88 1 C92.62 1 97.24 1 102 1 C102 22.45 102 43.9 102 66 C98.24494662 64.74831554 95.14634806 63.69871544 91.70703125 61.96875 C90.92328125 61.57623047 90.13953125 61.18371094 89.33203125 60.77929688 C88.50058594 60.35712891 87.66914062 59.93496094 86.8125 59.5 C85.92304687 59.05205078 85.03359375 58.60410156 84.1171875 58.14257812 C77.80339537 54.94985913 71.54748935 51.65623169 65.3034668 48.32983398 C54.7293682 42.74062158 43.98911424 37.47118049 33.27539062 32.15625 C32.5047226 31.77303085 31.73405457 31.38981171 30.94003296 30.99497986 C29.48423441 30.27115773 28.02759763 29.54901811 26.56997681 28.82887268 C25.58038467 28.33652382 25.58038467 28.33652382 24.57080078 27.83422852 C23.71411301 27.40981224 23.71411301 27.40981224 22.84011841 26.9768219 C20.51061119 25.74020927 18.26154143 24.35692486 16 23 C15.67 36.86 15.34 50.72 15 65 C10.05 65 5.1 65 0 65 C0 43.55 0 22.1 0 0 Z " fill="#A9AAAE" transform="translate(821,711)"/>
<path d="M0 0 C7.66091235 -0.06308162 15.32087247 -0.12316624 22.98181915 -0.15525055 C26.55008672 -0.17102813 30.11813708 -0.19207752 33.6862793 -0.22631836 C37.78957099 -0.26544385 41.89263614 -0.27976317 45.99609375 -0.29296875 C47.26206894 -0.30845261 48.52804413 -0.32393646 49.8323822 -0.33988953 C57.43031768 -0.34132355 65.01837058 -0.23868046 71.15625 4.75390625 C71.5996875 5.35074219 72.043125 5.94757812 72.5 6.5625 C73.19609375 7.46162109 73.19609375 7.46162109 73.90625 8.37890625 C77.38697619 13.53783971 76.49118177 20.01031116 76 26 C73.50458366 31.36052398 69.75146671 34.91273786 64.22848511 37.09518433 C60.88915782 38.03106464 58.17912113 38.24140714 54.71923828 38.22705078 C52.88801926 38.22682419 52.88801926 38.22682419 51.01980591 38.22659302 C49.06480667 38.21110916 49.06480667 38.21110916 47.0703125 38.1953125 C45.71125497 38.19157802 44.35219474 38.1887331 42.99313354 38.18673706 C39.43225551 38.17913483 35.87154303 38.1595161 32.31072998 38.1373291 C28.67071817 38.1167968 25.03067858 38.1076097 21.390625 38.09765625 C14.26027089 38.07733027 7.13037024 38.03817569 0 38 C0 25.46 0 12.92 0 0 Z " fill="#182343" transform="translate(1523,725)"/>
<path d="M0 0 C21.12 0 42.24 0 64 0 C64 11.22 64 22.44 64 34 C42.88 34 21.76 34 0 34 C0 22.78 0 11.56 0 0 Z " fill="#162041" transform="translate(1091,729)"/>
<path d="M0 0 C32.34 0 64.68 0 98 0 C98 4.29 98 8.58 98 13 C84.14 13 70.28 13 56 13 C56 29.83 56 46.66 56 64 C51.38 64 46.76 64 42 64 C42 47.17 42 30.34 42 13 C28.14 13 14.28 13 0 13 C0 8.71 0 4.42 0 0 Z " fill="#B2B3B6" transform="translate(967,712)"/>
<path d="M0 0 C4.95 0 9.9 0 15 0 C15 21.12 15 42.24 15 64 C10.05 64 5.1 64 0 64 C0 42.88 0 21.76 0 0 Z " fill="#94969B" transform="translate(534,712)"/>
<path d="M0 0 C4.62 0 9.24 0 14 0 C14 21.12 14 42.24 14 64 C9.38 64 4.76 64 0 64 C0 42.88 0 21.76 0 0 Z " fill="#C6C7CA" transform="translate(1360,712)"/>
<path d="M0 0 C4.62 0 9.24 0 14 0 C14 21.12 14 42.24 14 64 C9.38 64 4.76 64 0 64 C0 42.88 0 21.76 0 0 Z " fill="#AFB0B3" transform="translate(940,712)"/>
<path d="M0 0 C4.62 0 9.24 0 14 0 C14 21.12 14 42.24 14 64 C9.38 64 4.76 64 0 64 C0 42.88 0 21.76 0 0 Z " fill="#A7A8AB" transform="translate(791,712)"/>
<path d="M0 0 C1.07878418 0.01047363 2.15756836 0.02094727 3.26904297 0.03173828 C5.01894531 0.04140625 5.01894531 0.04140625 6.80419922 0.05126953 C8.02751953 0.06802734 9.25083984 0.08478516 10.51123047 0.10205078 C11.74228516 0.11107422 12.97333984 0.12009766 14.24169922 0.12939453 C17.29006862 0.1530253 20.33805429 0.18597024 23.38623047 0.22705078 C23.4443967 3.6436457 23.47988241 7.06011283 23.51123047 10.47705078 C23.53636719 11.92917969 23.53636719 11.92917969 23.56201172 13.41064453 C23.56845703 14.34521484 23.57490234 15.27978516 23.58154297 16.24267578 C23.5920166 17.10151367 23.60249023 17.96035156 23.61328125 18.84521484 C23.38623047 21.22705078 23.38623047 21.22705078 21.38623047 25.22705078 C13.13623047 25.22705078 4.88623047 25.22705078 -3.61376953 25.22705078 C-3.61376953 23.57705078 -3.61376953 21.92705078 -3.61376953 20.22705078 C3.64623047 20.22705078 10.90623047 20.22705078 18.38623047 20.22705078 C18.38623047 19.56705078 18.38623047 18.90705078 18.38623047 18.22705078 C17.79608154 18.24276123 17.20593262 18.25847168 16.59790039 18.2746582 C13.92327461 18.33703017 11.24880183 18.37604736 8.57373047 18.41455078 C7.64496094 18.4396875 6.71619141 18.46482422 5.75927734 18.49072266 C4.42026367 18.50522461 4.42026367 18.50522461 3.05419922 18.52001953 C2.23201904 18.53572998 1.40983887 18.55144043 0.56274414 18.56762695 C-2.14367716 18.14413198 -3.00514318 17.41378719 -4.61376953 15.22705078 C-4.97705078 12.16064453 -4.97705078 12.16064453 -4.92626953 8.66455078 C-4.92240234 7.50826172 -4.91853516 6.35197266 -4.91455078 5.16064453 C-4.5248906 1.36019259 -3.86294907 0.33556348 0 0 Z " fill="#ADAFB4" transform="translate(1088.61376953125,823.77294921875)"/>
<path d="M0 0 C6.37732315 1.87724961 12.70695459 3.85671642 19 6 C19 6.66 19 7.32 19 8 C13.61328125 11.078125 13.61328125 11.078125 11.9019165 12.05596924 C8.75525522 13.85395424 5.60878402 15.65227056 2.46264648 17.45117188 C-3.38053354 20.79178675 -9.22478876 24.130322 -15.078125 27.453125 C-16.86469494 28.46855366 -18.65115895 29.48416873 -20.4375 30.5 C-21.28183594 30.97945068 -22.12617187 31.45890137 -22.99609375 31.95288086 C-29.01188899 35.38697701 -34.89112219 38.99539847 -40.69921875 42.76953125 C-41.45847656 43.17558594 -42.21773437 43.58164062 -43 44 C-43.66 43.67 -44.32 43.34 -45 43 C-31.13887086 28.96365996 -31.13887086 28.96365996 -24.921875 23.703125 C-21.61186147 20.76986097 -18.56401969 17.57095081 -15.45703125 14.42578125 C-12.66091566 11.66522834 -9.74535815 9.09300941 -6.76171875 6.5390625 C-4.38847084 4.46575944 -2.19312738 2.26166261 0 0 Z " fill="#BFBFC0" transform="translate(1270,259)"/>
<path d="M0 0 C1.65 0 3.3 0 5 0 C5 8.25 5 16.5 5 25 C-1.125625 25.061875 -1.125625 25.061875 -7.375 25.125 C-9.30545166 25.15231201 -9.30545166 25.15231201 -11.27490234 25.18017578 C-12.28504395 25.1851709 -13.29518555 25.19016602 -14.3359375 25.1953125 C-15.37282715 25.20578613 -16.4097168 25.21625977 -17.47802734 25.22705078 C-20 25 -20 25 -22 23 C-22.19849071 20.45464859 -22.27851775 18.04283241 -22.25 15.5 C-22.25773437 14.81035156 -22.26546875 14.12070312 -22.2734375 13.41015625 C-22.25333293 8.25333293 -22.25333293 8.25333293 -20 6 C-17.93701172 5.77294922 -17.93701172 5.77294922 -15.4296875 5.8046875 C-14.53378906 5.81113281 -13.63789062 5.81757812 -12.71484375 5.82421875 C-11.30912109 5.84935547 -11.30912109 5.84935547 -9.875 5.875 C-8.93011719 5.88402344 -7.98523437 5.89304687 -7.01171875 5.90234375 C-4.67422708 5.92595478 -2.33723877 5.95888484 0 6 C0 4.02 0 2.04 0 0 Z " fill="#B6B8BC" transform="translate(1182,817)"/>
<path d="M0 0 C0.33 0 0.66 0 1 0 C1 10.23 1 20.46 1 31 C-8.24 31 -17.48 31 -27 31 C-27 29.68 -27 28.36 -27 27 C-26.34 27 -25.68 27 -25 27 C-24.93941406 26.44957031 -24.87882813 25.89914062 -24.81640625 25.33203125 C-23.63314337 21.95208895 -21.49248047 20.17219215 -18.9375 17.6875 C-18.44233887 17.2032959 -17.94717773 16.7190918 -17.43701172 16.22021484 C-13.97122335 12.85744829 -10.39844789 9.63625436 -6.72265625 6.50390625 C-5.09481061 5.08277117 -3.57262541 3.60704422 -2.0625 2.0625 C-1.381875 1.381875 -0.70125 0.70125 0 0 Z " fill="#CCCCCC" transform="translate(914,280)"/>
<path d="M0 0 C1.06734375 -0.00257813 2.1346875 -0.00515625 3.234375 -0.0078125 C4.91273437 0.00378906 4.91273437 0.00378906 6.625 0.015625 C7.74390625 0.00789062 8.8628125 0.00015625 10.015625 -0.0078125 C11.08296875 -0.00523437 12.1503125 -0.00265625 13.25 0 C14.23226563 0.00225586 15.21453125 0.00451172 16.2265625 0.00683594 C18.625 0.265625 18.625 0.265625 20.625 2.265625 C20.890625 5.453125 20.890625 5.453125 20.875 9.265625 C20.88015625 10.52375 20.8853125 11.781875 20.890625 13.078125 C20.625 16.265625 20.625 16.265625 18.625 18.265625 C14.83153509 18.72045267 11.00508871 18.5896585 7.1875 18.578125 C6.12466797 18.59423828 5.06183594 18.61035156 3.96679688 18.62695312 C2.43829102 18.62791992 2.43829102 18.62791992 0.87890625 18.62890625 C-0.05622803 18.63188721 -0.9913623 18.63486816 -1.95483398 18.63793945 C-4.375 18.265625 -4.375 18.265625 -6.18066406 16.93457031 C-8.06943583 14.29523184 -7.73377684 11.88910764 -7.6875 8.703125 C-7.68363281 7.54683594 -7.67976563 6.39054688 -7.67578125 5.19921875 C-7.13474673 -0.07762439 -4.68026233 0.01074863 0 0 Z " fill="#BEC0C5" transform="translate(1326.375,823.734375)"/>
<path d="M0 0 C1.5631897 0.00785522 1.5631897 0.00785522 3.15795898 0.01586914 C4.28266602 0.0190918 5.40737305 0.02231445 6.56616211 0.02563477 C7.75016602 0.03401367 8.93416992 0.04239258 10.15405273 0.05102539 C11.34192383 0.05553711 12.52979492 0.06004883 13.75366211 0.06469727 C16.69967499 0.07652864 19.64558954 0.09301252 22.59155273 0.11352539 C24.07675998 3.08393988 23.76213493 5.81116986 23.77905273 9.11352539 C23.79323242 10.37165039 23.80741211 11.62977539 23.82202148 12.92602539 C23.59155273 16.11352539 23.59155273 16.11352539 21.59155273 18.11352539 C19.28491211 18.37231445 19.28491211 18.37231445 16.43530273 18.37915039 C14.90196289 18.38301758 14.90196289 18.38301758 13.33764648 18.38696289 C12.26643555 18.37922852 11.19522461 18.37149414 10.09155273 18.36352539 C8.48473633 18.37512695 8.48473633 18.37512695 6.84545898 18.38696289 C5.82323242 18.38438477 4.80100586 18.38180664 3.74780273 18.37915039 C2.80743164 18.37689453 1.86706055 18.37463867 0.89819336 18.37231445 C-1.40844727 18.11352539 -1.40844727 18.11352539 -3.40844727 16.11352539 C-3.58008457 13.55060223 -3.64109284 11.11006682 -3.59594727 8.55102539 C-3.59530273 7.85299805 -3.5946582 7.1549707 -3.59399414 6.43579102 C-3.53926993 0.16682823 -3.53926993 0.16682823 0 0 Z " fill="#A2A4A9" transform="translate(951.408447265625,823.886474609375)"/>
<path d="M0 0 C9.57 0 19.14 0 29 0 C29 1.65 29 3.3 29 5 C21.08 5 13.16 5 5 5 C5 6.65 5 8.3 5 10 C9.95 10 14.9 10 20 10 C20 11.32 20 12.64 20 14 C15.05 14 10.1 14 5 14 C5 15.65 5 17.3 5 19 C12.92 19 20.84 19 29 19 C29 20.98 29 22.96 29 25 C19.43 25 9.86 25 0 25 C0 16.75 0 8.5 0 0 Z " fill="#B8B9BD" transform="translate(1127,817)"/>
<path d="M0 0 C7.92 0 15.84 0 24 0 C26.16969145 4.33938291 26.21326104 6.48390408 26.125 11.25 C26.10695313 12.51328125 26.08890625 13.7765625 26.0703125 15.078125 C26.04710937 16.04234375 26.02390625 17.0065625 26 18 C21.87513162 18.08676908 17.75049616 18.14031295 13.625 18.1875 C12.449375 18.21263672 11.27375 18.23777344 10.0625 18.26367188 C8.94101562 18.27333984 7.81953125 18.28300781 6.6640625 18.29296875 C5.62717285 18.3086792 4.5902832 18.32438965 3.52197266 18.34057617 C2.68972168 18.22818604 1.8574707 18.1157959 1 18 C-1.44897847 14.32653229 -1.31537716 12.33643601 -1 8 C1 6 1 6 3.06298828 5.77294922 C3.89040527 5.78342285 4.71782227 5.79389648 5.5703125 5.8046875 C6.46621094 5.81113281 7.36210938 5.81757812 8.28515625 5.82421875 C9.69087891 5.84935547 9.69087891 5.84935547 11.125 5.875 C12.06988281 5.88402344 13.01476562 5.89304687 13.98828125 5.90234375 C16.32577292 5.92595478 18.66276123 5.95888484 21 6 C21 5.34 21 4.68 21 4 C14.07 4 7.14 4 0 4 C0 2.68 0 1.36 0 0 Z " fill="#8E9198" transform="translate(828,824)"/>
<path d="M0 0 C3.95819611 -0.08678303 7.91614934 -0.14031733 11.875 -0.1875 C13.00292969 -0.21263672 14.13085938 -0.23777344 15.29296875 -0.26367188 C16.36933594 -0.27333984 17.44570312 -0.28300781 18.5546875 -0.29296875 C20.04718018 -0.31653442 20.04718018 -0.31653442 21.56982422 -0.34057617 C22.37178223 -0.22818604 23.17374023 -0.1157959 24 0 C26.45391569 3.68087353 26.22802759 6.44355588 26.125 10.6875 C26.11597656 11.38939453 26.10695313 12.09128906 26.09765625 12.81445312 C26.07413704 14.54311525 26.03826713 16.27160145 26 18 C22.06274674 18.11594584 18.12593077 18.18716464 14.1875 18.25 C13.06794922 18.28351562 11.94839844 18.31703125 10.79492188 18.3515625 C9.72177734 18.36445312 8.64863281 18.37734375 7.54296875 18.390625 C6.0583313 18.4220459 6.0583313 18.4220459 4.54370117 18.45410156 C2 18 2 18 0.1730957 16.17089844 C-1.38766706 13.28259408 -1.35151734 11.23395953 -1 8 C1 6 1 6 3.06298828 5.77294922 C3.89040527 5.78342285 4.71782227 5.79389648 5.5703125 5.8046875 C6.46621094 5.81113281 7.36210938 5.81757812 8.28515625 5.82421875 C9.69087891 5.84935547 9.69087891 5.84935547 11.125 5.875 C12.06988281 5.88402344 13.01476563 5.89304687 13.98828125 5.90234375 C16.32577292 5.92595478 18.66276123 5.95888484 21 6 C21 5.34 21 4.68 21 4 C14.07 4 7.14 4 0 4 C0 2.68 0 1.36 0 0 Z " fill="#B2B4BA" transform="translate(1251,824)"/>
<path d="M0 0 C8.25 0 16.5 0 25 0 C25 1.32 25 2.64 25 4 C17.74 4 10.48 4 3 4 C3 4.66 3 5.32 3 6 C3.59538574 5.98952637 4.19077148 5.97905273 4.80419922 5.96826172 C7.49442343 5.92676051 10.18458037 5.90069296 12.875 5.875 C13.81214844 5.85824219 14.74929688 5.84148438 15.71484375 5.82421875 C16.61074219 5.81777344 17.50664063 5.81132813 18.4296875 5.8046875 C19.25710449 5.79421387 20.08452148 5.78374023 20.93701172 5.77294922 C23 6 23 6 25 8 C25.265625 9.875 25.265625 9.875 25.25 12 C25.25515625 12.70125 25.2603125 13.4025 25.265625 14.125 C25 16 25 16 23 18 C20.56982422 18.22705078 20.56982422 18.22705078 17.5546875 18.1953125 C16.47832031 18.18886719 15.40195312 18.18242188 14.29296875 18.17578125 C13.16503906 18.15902344 12.03710938 18.14226563 10.875 18.125 C9.73933594 18.11597656 8.60367188 18.10695313 7.43359375 18.09765625 C4.62218701 18.07403098 1.81119702 18.04109013 -1 18 C-1 16.35 -1 14.7 -1 13 C6.26 13 13.52 13 21 13 C21 12.34 21 11.68 21 11 C20.10692139 11.01571045 20.10692139 11.01571045 19.19580078 11.03173828 C16.50557657 11.07323949 13.81541963 11.09930704 11.125 11.125 C9.71927734 11.15013672 9.71927734 11.15013672 8.28515625 11.17578125 C6.94130859 11.18544922 6.94130859 11.18544922 5.5703125 11.1953125 C4.74289551 11.20578613 3.91547852 11.21625977 3.06298828 11.22705078 C1 11 1 11 -1 9 C-1.33870968 2.67741935 -1.33870968 2.67741935 0 0 Z " fill="#9FA1A6" transform="translate(890,824)"/>
<path d="M0 0 C1.65 0 3.3 0 5 0 C5 2.31 5 4.62 5 7 C12.26 7 19.52 7 27 7 C27 8.65 27 10.3 27 12 C19.74 12 12.48 12 5 12 C5 14.97 5 17.94 5 21 C12.26 21 19.52 21 27 21 C27 22.65 27 24.3 27 26 C23.04172765 26.05785647 19.0835633 26.09354717 15.125 26.125 C13.99707031 26.14175781 12.86914062 26.15851562 11.70703125 26.17578125 C10.09248047 26.18544922 10.09248047 26.18544922 8.4453125 26.1953125 C6.95281982 26.21102295 6.95281982 26.21102295 5.43017578 26.22705078 C3 26 3 26 1 24 C0.8046875 21.1796875 0.8046875 21.1796875 0.875 17.875 C0.89304687 16.77929688 0.91109375 15.68359375 0.9296875 14.5546875 C0.95289063 13.71164062 0.97609375 12.86859375 1 12 C0.01 12 -0.98 12 -2 12 C-2 10.68 -2 9.36 -2 8 C-1.34 8 -0.68 8 0 8 C0 5.36 0 2.72 0 0 Z " fill="#BFC1C5" transform="translate(1281,816)"/>
<path d="M0 0 C4.53904366 -0.02291161 9.07788802 -0.04283781 13.61694336 -0.05493164 C15.16219766 -0.0599714 16.70744716 -0.0668032 18.25268555 -0.07543945 C20.46925029 -0.08752076 22.68575218 -0.09323173 24.90234375 -0.09765625 C25.5971434 -0.10281754 26.29194305 -0.10797882 27.00779724 -0.11329651 C28.6722933 -0.11349277 30.33665499 -0.06189129 32 0 C33 1 33 1 33.09765625 4.81640625 C33.09098089 6.39846682 33.07901875 7.98051159 33.0625 9.5625 C33.05798828 10.36880859 33.05347656 11.17511719 33.04882812 12.00585938 C33.03700518 14.00393756 33.01906914 16.00197783 33 18 C31.68 18 30.36 18 29 18 C29 13.38 29 8.76 29 4 C25.7 4 22.4 4 19 4 C19 8.62 19 13.24 19 18 C17.68 18 16.36 18 15 18 C15 13.38 15 8.76 15 4 C11.7 4 8.4 4 5 4 C5 8.62 5 13.24 5 18 C3.35 18 1.7 18 0 18 C0 12.06 0 6.12 0 0 Z " fill="#ABADB1" transform="translate(1007,824)"/>
<path d="M0 0 C1.5631897 0.00785522 1.5631897 0.00785522 3.15795898 0.01586914 C4.28266602 0.0190918 5.40737305 0.02231445 6.56616211 0.02563477 C7.75016602 0.03401367 8.93416992 0.04239258 10.15405273 0.05102539 C11.34192383 0.05553711 12.52979492 0.06004883 13.75366211 0.06469727 C16.69967499 0.07652864 19.64558954 0.09301252 22.59155273 0.11352539 C22.59155273 1.43352539 22.59155273 2.75352539 22.59155273 4.11352539 C15.33155273 4.11352539 8.07155273 4.11352539 0.59155273 4.11352539 C0.59155273 5.10352539 0.59155273 6.09352539 0.59155273 7.11352539 C7.85155273 7.11352539 15.11155273 7.11352539 22.59155273 7.11352539 C22.59155273 8.43352539 22.59155273 9.75352539 22.59155273 11.11352539 C15.33155273 11.11352539 8.07155273 11.11352539 0.59155273 11.11352539 C0.59155273 15.73352539 0.59155273 20.35352539 0.59155273 25.11352539 C-0.72844727 25.11352539 -2.04844727 25.11352539 -3.40844727 25.11352539 C-3.4373171 21.1343738 -3.45520133 17.15524886 -3.47094727 13.17602539 C-3.47932617 12.0397168 -3.48770508 10.9034082 -3.49633789 9.73266602 C-3.49956055 8.65307617 -3.5027832 7.57348633 -3.50610352 6.46118164 C-3.51134033 5.46094971 -3.51657715 4.46071777 -3.52197266 3.43017578 C-3.36587418 0.24475969 -3.19065853 0.15039597 0 0 Z " fill="#A7A9AC" transform="translate(922.408447265625,816.886474609375)"/>
<path d="M0 0 C10.89 0 21.78 0 33 0 C33 1.65 33 3.3 33 5 C28.38 5 23.76 5 19 5 C19 11.6 19 18.2 19 25 C17.35 25 15.7 25 14 25 C14 18.4 14 11.8 14 5 C9.38 5 4.76 5 0 5 C0 3.35 0 1.7 0 0 Z " fill="#9A9C9F" transform="translate(765,817)"/>
<path d="M0 0 C0.9583374 0.00523682 1.9166748 0.01047363 2.90405273 0.01586914 C4.45576172 0.02070312 4.45576172 0.02070312 6.03881836 0.02563477 C7.12743164 0.03401367 8.21604492 0.04239258 9.33764648 0.05102539 C10.97636719 0.05779297 10.97636719 0.05779297 12.64819336 0.06469727 C15.35723144 0.07652713 18.06616248 0.09300996 20.77514648 0.11352539 C20.77514648 1.43352539 20.77514648 2.75352539 20.77514648 4.11352539 C14.17514648 4.11352539 7.57514648 4.11352539 0.77514648 4.11352539 C0.77514648 7.08352539 0.77514648 10.05352539 0.77514648 13.11352539 C7.37514648 13.11352539 13.97514648 13.11352539 20.77514648 13.11352539 C20.77514648 14.76352539 20.77514648 16.41352539 20.77514648 18.11352539 C17.15021314 18.17140323 13.52539791 18.20707959 9.90014648 18.23852539 C8.86760742 18.2552832 7.83506836 18.27204102 6.77124023 18.28930664 C5.78510742 18.29575195 4.79897461 18.30219727 3.78295898 18.30883789 C2.4161499 18.32454834 2.4161499 18.32454834 1.02172852 18.34057617 C-1.22485352 18.11352539 -1.22485352 18.11352539 -3.22485352 16.11352539 C-3.39649082 13.55060223 -3.45749909 11.11006682 -3.41235352 8.55102539 C-3.41170898 7.85299805 -3.41106445 7.1549707 -3.41040039 6.43579102 C-3.35571459 0.17122872 -3.35571459 0.17122872 0 0 Z " fill="#C2C4C7" transform="translate(1226.224853515625,823.886474609375)"/>
<path d="M0 0 C1.32 0 2.64 0 4 0 C4 4.29 4 8.58 4 13 C10.27 13 16.54 13 23 13 C23 8.71 23 4.42 23 0 C24.32 0 25.64 0 27 0 C27 5.94 27 11.88 27 18 C23.06209217 18.0807316 19.12582931 18.14037469 15.1875 18.1875 C14.06794922 18.21263672 12.94839844 18.23777344 11.79492188 18.26367188 C10.72177734 18.27333984 9.64863281 18.28300781 8.54296875 18.29296875 C7.55321045 18.3086792 6.56345215 18.32438965 5.54370117 18.34057617 C3 18 3 18 1.171875 16.70507812 C-0.78894798 13.85208068 -0.30868499 10.6404262 -0.1875 7.3125 C-0.17396484 6.61060547 -0.16042969 5.90871094 -0.14648438 5.18554688 C-0.11120182 3.45670171 -0.05739583 1.72825235 0 0 Z " fill="#BCBEC1" transform="translate(1191,824)"/>
<path d="M0 0 C4.31254083 -0.02682299 8.62491707 -0.04675244 12.9375 -0.0625 C14.16919922 -0.07087891 15.40089844 -0.07925781 16.66992188 -0.08789062 C17.83974609 -0.09111328 19.00957031 -0.09433594 20.21484375 -0.09765625 C21.84087524 -0.10551147 21.84087524 -0.10551147 23.49975586 -0.11352539 C26 0 26 0 27 1 C27.07325168 3.86267567 27.09238205 6.700719 27.0625 9.5625 C27.05798828 10.36880859 27.05347656 11.17511719 27.04882812 12.00585938 C27.03700518 14.00393756 27.01906914 16.00197783 27 18 C25.68 18 24.36 18 23 18 C23 13.38 23 8.76 23 4 C16.73 4 10.46 4 4 4 C4 8.62 4 13.24 4 18 C2.68 18 1.36 18 0 18 C0 12.06 0 6.12 0 0 Z " fill="#D1D3D5" transform="translate(1351,824)"/>
<path d="M0 0 C4.31254083 -0.02682299 8.62491707 -0.04675244 12.9375 -0.0625 C14.16919922 -0.07087891 15.40089844 -0.07925781 16.66992188 -0.08789062 C17.83974609 -0.09111328 19.00957031 -0.09433594 20.21484375 -0.09765625 C21.84087524 -0.10551147 21.84087524 -0.10551147 23.49975586 -0.11352539 C26 0 26 0 27 1 C27.07325168 3.86267567 27.09238205 6.700719 27.0625 9.5625 C27.05798828 10.36880859 27.05347656 11.17511719 27.04882812 12.00585938 C27.03700518 14.00393756 27.01906914 16.00197783 27 18 C25.68 18 24.36 18 23 18 C23 13.38 23 8.76 23 4 C16.73 4 10.46 4 4 4 C4 8.62 4 13.24 4 18 C2.68 18 1.36 18 0 18 C0 12.06 0 6.12 0 0 Z " fill="#B4B6B9" transform="translate(1053,824)"/>
<path d="M0 0 C8.58 0 17.16 0 26 0 C27.59412284 3.18824568 27.10174735 6.62896662 27.0625 10.125 C27.05798828 10.87910156 27.05347656 11.63320313 27.04882812 12.41015625 C27.03703499 14.27347127 27.01909942 16.13674555 27 18 C25.68 18 24.36 18 23 18 C23 13.38 23 8.76 23 4 C16.73 4 10.46 4 4 4 C4 8.62 4 13.24 4 18 C2.68 18 1.36 18 0 18 C0 12.06 0 6.12 0 0 Z " fill="#A2A4A7" transform="translate(858,824)"/>
<path d="M0 0 C3.62504899 -0.02687433 7.24990046 -0.04677776 10.875 -0.0625 C12.42380859 -0.07506836 12.42380859 -0.07506836 14.00390625 -0.08789062 C14.99003906 -0.09111328 15.97617187 -0.09433594 16.9921875 -0.09765625 C18.35899658 -0.10551147 18.35899658 -0.10551147 19.75341797 -0.11352539 C22 0 22 0 24 1 C24 2.98 24 4.96 24 7 C22.68 7 21.36 7 20 7 C20 6.34 20 5.68 20 5 C15.05 5 10.1 5 5 5 C5 9.29 5 13.58 5 18 C3.35 18 1.7 18 0 18 C0 12.06 0 6.12 0 0 Z " fill="#9C9FA5" transform="translate(979,824)"/>
<path d="M0 0 C3.62519589 -0.05375085 7.2496019 -0.09355293 10.875 -0.125 C11.90753906 -0.14175781 12.94007813 -0.15851562 14.00390625 -0.17578125 C14.99003906 -0.18222656 15.97617187 -0.18867187 16.9921875 -0.1953125 C18.35899658 -0.21102295 18.35899658 -0.21102295 19.75341797 -0.22705078 C22 0 22 0 24 2 C24.125 5.125 24.125 5.125 24 8 C22.68 8 21.36 8 20 8 C20 7.01 20 6.02 20 5 C14.72 5 9.44 5 4 5 C4 9.29 4 13.58 4 18 C2.68 18 1.36 18 0 18 C0 12.06 0 6.12 0 0 Z " fill="#95979C" transform="translate(800,824)"/>
<path d="M0 0 C6.27 0 12.54 0 19 0 C19 2.97 19 5.94 19 9 C12.73 9 6.46 9 0 9 C0 6.03 0 3.06 0 0 Z " fill="#232C4B" transform="translate(1088,828)"/>
<path d="M0 0 C6.27 0 12.54 0 19 0 C19 2.97 19 5.94 19 9 C12.73 9 6.46 9 0 9 C0 6.03 0 3.06 0 0 Z " fill="#1F2948" transform="translate(1164,828)"/>
<path d="M0 0 C6.27 0 12.54 0 19 0 C19 2.64 19 5.28 19 8 C12.73 8 6.46 8 0 8 C0 5.36 0 2.72 0 0 Z " fill="#182242" transform="translate(952,829)"/>
<path d="M0 0 C5.94 0 11.88 0 18 0 C18 2.64 18 5.28 18 8 C12.06 8 6.12 8 0 8 C0 5.36 0 2.72 0 0 Z " fill="#162041" transform="translate(1324,829)"/>
<path d="M0 0 C1.65 0 3.3 0 5 0 C5 5.94 5 11.88 5 18 C3.35 18 1.7 18 0 18 C0 12.06 0 6.12 0 0 Z " fill="#93969F" transform="translate(1044,824)"/>
<path d="M0 0 C0.33 0 0.66 0 1 0 C1 10.56 1 21.12 1 32 C-10.22 32 -21.44 32 -33 32 C-30.91100178 27.82200357 -29.94455388 27.07608099 -26 25 C-26.33 26.65 -26.66 28.3 -27 30 C-13.635 30.495 -13.635 30.495 0 31 C0 20.77 0 10.54 0 0 Z " fill="#596074" transform="translate(915,280)"/>
<path d="M0 0 C1.32 0 2.64 0 4 0 C4 5.94 4 11.88 4 18 C2.68 18 1.36 18 0 18 C0 12.06 0 6.12 0 0 Z " fill="#C1C3C7" transform="translate(1311,824)"/>
<path d="M0 0 C0.66 0.33 1.32 0.66 2 1 C1.43410156 1.54269531 0.86820313 2.08539063 0.28515625 2.64453125 C-0.44832031 3.35996094 -1.18179687 4.07539063 -1.9375 4.8125 C-3.03384766 5.87404297 -3.03384766 5.87404297 -4.15234375 6.95703125 C-6.20834646 8.95536163 -6.20834646 8.95536163 -7 12 C-9.4375 13.75 -9.4375 13.75 -12 15 C-12.66 14.67 -13.32 14.34 -14 14 C-9.38 9.38 -4.76 4.76 0 0 Z " fill="#88898E" transform="translate(1239,288)"/>
<path d="M0 0 C1.65 0 3.3 0 5 0 C4.67 1.65 4.34 3.3 4 5 C2.68 5 1.36 5 0 5 C0 3.35 0 1.7 0 0 Z " fill="#8B8F99" transform="translate(1044,817)"/>
<path d="M0 0 C0 3 0 3 -1 6 C-2.65 6 -4.3 6 -6 6 C-2.25 1.125 -2.25 1.125 0 0 Z " fill="#848588" transform="translate(888,305)"/>
<path d="M0 0 C0.99 0.33 1.98 0.66 3 1 C0.64722731 3.72426311 -1.62496331 4.8141763 -5 6 C-3.35 4.02 -1.7 2.04 0 0 Z " fill="#7E7F82" transform="translate(1230,297)"/>
</svg>
